<svg width="252" height="160" viewBox="0 0 252 160" fill="none" xmlns="http://www.w3.org/2000/svg">
<path d="M81.3116 113.999L112.847 96.0152C114 95.3522 113.856 94.1876 112.524 93.4171L94.3796 82.9412C93.0477 82.1707 91.0349 82.0871 89.8822 82.756L58.347 100.739C57.1943 101.402 57.3376 102.567 58.6695 103.338L76.8142 113.813C78.1401 114.578 80.1589 114.662 81.3116 113.999Z" fill="#D4ECFF"/>
<path d="M55.5341 94.6833V21.0653L84.7998 13.4025L90.193 10.2907C91.4294 9.57403 93.5914 9.66362 95.0189 10.4938L100.048 13.3965L115.66 13.3905L111.037 84.4583C111.073 84.942 110.804 85.4079 110.207 85.7543L81.0012 107.793C79.7649 108.51 77.6028 108.42 76.1754 107.59L56.7107 96.3497C55.8806 95.8718 55.4864 95.2567 55.5341 94.6833Z" fill="#396CAA"/>
<path d="M92.4268 9.81293C93.3347 9.83682 94.2724 10.0638 95.013 10.4938L100.042 13.3965L115.654 13.3905V87.2056C115.69 87.6894 115.421 88.1553 114.824 88.5017L80.9953 107.793C80.398 108.134 79.5917 108.295 78.7556 108.271L78.4092 33.9899L92.4268 9.81293Z" fill="#D4ECFF"/>
<path d="M80.6845 107.942C79.6154 108.402 78.0744 108.372 76.8262 107.901V33.1119H80.6845V107.942Z" fill="#5793CE"/>
<path d="M81.0009 33.9959L114.83 14.7045C116.066 13.9877 115.911 12.7455 114.483 11.9153L95.0185 0.680839C93.5911 -0.143378 91.429 -0.232966 90.1927 0.483743L56.358 19.7692C55.1217 20.4859 55.277 21.7282 56.7044 22.5584L76.169 33.7988C77.6025 34.623 79.7586 34.7126 81.0009 33.9959Z" fill="#D4ECFF"/>
<path d="M56.7045 21.1907L76.1692 32.431C77.5966 33.2553 79.7587 33.3449 80.995 32.6281L114.824 13.3367C115.098 13.1754 115.302 12.9903 115.439 12.7872C115.863 13.4741 115.672 14.2147 114.824 14.7044L80.995 33.9959C79.7587 34.7126 77.5966 34.623 76.1692 33.7988L56.7045 22.5584C55.5936 21.9193 55.2592 21.0234 55.743 20.3187C55.9341 20.6292 56.2566 20.9338 56.7045 21.1907Z" fill="#FAFDFF"/>
<path d="M80.0397 26.1786L102.562 13.1225C103.142 12.7881 103.07 12.2028 102.401 11.8205L93.2929 6.56464C92.6239 6.17642 91.6146 6.13461 91.0352 6.46908L68.5126 19.5251C67.9333 19.8596 68.005 20.4449 68.6739 20.8272L77.7821 26.083C78.451 26.4712 79.4604 26.5131 80.0397 26.1786Z" fill="#173D7A"/>
<path d="M92.1999 13.707L93.5079 12.9545C93.5856 12.9067 93.5796 12.8291 93.484 12.7753L92.2238 12.0467C92.1342 11.9929 91.9909 11.9869 91.9132 12.0347L90.6052 12.7873C90.5276 12.835 90.5336 12.9127 90.6291 12.9664L91.8894 13.6951C91.9789 13.7488 92.1223 13.7548 92.1999 13.707Z" fill="#D4ECFF"/>
<path d="M87.8406 16.2155L89.1486 15.463C89.2262 15.4152 89.2202 15.3376 89.1247 15.2838L87.8644 14.5551C87.7749 14.5014 87.6315 14.4954 87.5539 14.5432L86.2459 15.2957C86.1682 15.3435 86.1742 15.4212 86.2698 15.4749L87.53 16.2036C87.6196 16.2573 87.7629 16.2633 87.8406 16.2155Z" fill="#D4ECFF"/>
<path d="M83.4802 18.724L84.7882 17.9715C84.8658 17.9237 84.8599 17.846 84.7643 17.7923L83.5041 17.0636C83.4145 17.0099 83.2712 17.0039 83.1935 17.0517L81.8855 17.8042C81.8079 17.852 81.8139 17.9297 81.9094 17.9834L83.1696 18.7121C83.2592 18.7658 83.4026 18.7718 83.4802 18.724Z" fill="#D4ECFF"/>
<path d="M79.1198 21.2325L80.4278 20.4799C80.5055 20.4322 80.4995 20.3545 80.4039 20.3008L79.1437 19.5721C79.0541 19.5184 78.9108 19.5124 78.8332 19.5602L77.5252 20.3067C77.4475 20.3545 77.4535 20.4322 77.5491 20.4859L78.8093 21.2146C78.8989 21.2683 79.0422 21.2743 79.1198 21.2325Z" fill="#D4ECFF"/>
<path d="M102.562 13.1217L102.538 13.1396C102.496 13.1098 102.454 13.074 102.401 13.0441L93.2925 7.78822C92.6236 7.4 91.6142 7.35819 91.0349 7.69266L68.5362 20.7308C68.0046 20.3486 67.9747 19.8289 68.5123 19.5184L91.0349 6.4623C91.6142 6.12784 92.6236 6.16965 93.2925 6.55786L102.401 11.8137C103.07 12.202 103.141 12.7873 102.562 13.1217Z" fill="#5793CE"/>
<path d="M72.3709 48.5809L59.5657 41.2526C58.843 40.8345 58.2637 39.7176 58.2637 38.762V34.181C58.2637 33.2194 58.849 32.7775 59.5657 33.1955L72.3709 40.5299C73.0936 40.948 73.6729 42.0648 73.6729 43.0204V47.6014C73.6729 48.557 73.0936 48.999 72.3709 48.5809Z" fill="#173D7A"/>
<path d="M58.9327 33.0522C58.7296 33.2433 58.6042 33.5658 58.6042 34.0078V38.5888C58.6042 39.5504 59.1895 40.6672 59.9062 41.0793L72.7114 48.4137C72.9444 48.5451 73.1594 48.5809 73.3445 48.551C73.1056 48.778 72.7592 48.8078 72.365 48.5869L59.5658 41.2525C58.8431 40.8345 58.2638 39.7176 58.2638 38.762V34.181C58.2578 33.524 58.5325 33.1239 58.9327 33.0522Z" fill="white"/>
<path d="M68.518 43.6058L67.3414 42.9249C67.1861 42.8353 67.0547 42.5904 67.0547 42.3814V41.1272C67.0547 40.9181 67.1801 40.8226 67.3414 40.9121L68.518 41.593C68.6733 41.6826 68.8046 41.9275 68.8046 42.1365V43.3908C68.8046 43.5998 68.6733 43.6954 68.518 43.6058Z" fill="#396CAA"/>
<path d="M64.5941 41.3422L63.4175 40.6613C63.2623 40.5717 63.1309 40.3268 63.1309 40.1178V38.8635C63.1309 38.6545 63.2563 38.5589 63.4175 38.6485L64.5941 39.3294C64.7494 39.419 64.8808 39.6639 64.8808 39.8729V41.1272C64.8749 41.3362 64.7494 41.4318 64.5941 41.3422Z" fill="white"/>
<path d="M72.3719 81.675L59.5667 74.3407C58.844 73.9226 58.2646 72.8057 58.2646 71.8501V67.2692C58.2646 66.3076 58.85 65.8656 59.5667 66.2837L72.3719 73.618C73.0946 74.0361 73.6739 75.153 73.6739 76.1086V80.6896C73.6739 81.6511 73.0946 82.0871 72.3719 81.675Z" fill="#173D7A"/>
<path d="M58.9327 66.1463C58.7296 66.3374 58.6042 66.6599 58.6042 67.1019V71.6829C58.6042 72.6445 59.1895 73.7613 59.9062 74.1734L72.7115 81.5078C72.9444 81.6392 73.1594 81.675 73.3446 81.6451C73.1056 81.8721 72.7592 81.902 72.365 81.681L59.5598 74.3467C58.8372 73.9286 58.2578 72.8117 58.2578 71.8561V67.2751C58.2578 66.6181 58.5326 66.212 58.9327 66.1463Z" fill="white"/>
<path d="M68.5189 76.6999L67.3423 76.019C67.1871 75.9294 67.0557 75.6846 67.0557 75.4755V74.2213C67.0557 74.0122 67.1811 73.9167 67.3423 74.0063L68.5189 74.6871C68.6742 74.7767 68.8056 75.0216 68.8056 75.2306V76.4849C68.8056 76.6939 68.6742 76.7895 68.5189 76.6999Z" fill="#396CAA"/>
<path d="M64.5951 74.4303L63.4185 73.7494C63.2632 73.6598 63.1318 73.415 63.1318 73.2059V71.9517C63.1318 71.7426 63.2573 71.6471 63.4185 71.7367L64.5951 72.4175C64.7504 72.5071 64.8818 72.752 64.8818 72.961V74.2153C64.8758 74.4243 64.7504 74.5199 64.5951 74.4303Z" fill="white"/>
<path d="M72.3719 98.219L59.5667 90.8847C58.844 90.4666 58.2646 89.3497 58.2646 88.3941V83.8132C58.2646 82.8516 58.85 82.4096 59.5667 82.8277L72.3719 90.162C73.0946 90.5801 73.6739 91.697 73.6739 92.6526V97.2336C73.6739 98.1951 73.0946 98.6371 72.3719 98.219Z" fill="#173D7A"/>
<path d="M58.9327 82.6903C58.7296 82.8814 58.6042 83.204 58.6042 83.6459V88.2269C58.6042 89.1885 59.1895 90.3053 59.9062 90.7175L72.7115 98.0518C72.9444 98.1832 73.1594 98.219 73.3446 98.1892C73.1056 98.4161 72.7592 98.446 72.365 98.225L59.5598 90.8907C58.8372 90.4726 58.2578 89.3557 58.2578 88.4001V83.8191C58.2578 83.1621 58.5326 82.756 58.9327 82.6903Z" fill="white"/>
<path d="M68.5189 93.2439L67.3423 92.563C67.1871 92.4734 67.0557 92.2286 67.0557 92.0195V90.7653C67.0557 90.5562 67.1811 90.4607 67.3423 90.5503L68.5189 91.2311C68.6742 91.3207 68.8056 91.5656 68.8056 91.7746V93.0289C68.8056 93.2379 68.6742 93.3335 68.5189 93.2439Z" fill="#396CAA"/>
<path d="M64.5951 90.9803L63.4185 90.2994C63.2632 90.2098 63.1318 89.9649 63.1318 89.7559V88.5017C63.1318 88.2926 63.2573 88.1971 63.4185 88.2867L64.5951 88.9675C64.7504 89.0571 64.8818 89.302 64.8818 89.511V90.7653C64.8758 90.9743 64.7504 91.0699 64.5951 90.9803Z" fill="white"/>
<path d="M72.3709 65.1309L59.5657 57.7966C58.843 57.3785 58.2637 56.2617 58.2637 55.3061V50.7251C58.2637 49.7635 58.849 49.3215 59.5657 49.7396L72.3709 57.0739C73.0936 57.492 73.6729 58.6089 73.6729 59.5645V64.1455C73.6729 65.1011 73.0936 65.5431 72.3709 65.1309Z" fill="#173D7A"/>
<path d="M58.9327 49.5963C58.7296 49.7874 58.6042 50.1099 58.6042 50.5519V55.1328C58.6042 56.0944 59.1895 57.2113 59.9062 57.6234L72.7114 64.9577C72.9444 65.0891 73.1594 65.125 73.3445 65.0951C73.1056 65.3221 72.7592 65.3519 72.365 65.1309L59.5658 57.7966C58.8431 57.3785 58.2638 56.2617 58.2638 55.306V50.7251C58.2578 50.0741 58.5325 49.6679 58.9327 49.5963Z" fill="white"/>
<path d="M68.518 60.1558L67.3414 59.475C67.1861 59.3854 67.0547 59.1405 67.0547 58.9314V57.6772C67.0547 57.4682 67.1801 57.3726 67.3414 57.4622L68.518 58.1431C68.6733 58.2327 68.8046 58.4775 68.8046 58.6866V59.9408C68.8046 60.1499 68.6733 60.2454 68.518 60.1558Z" fill="#396CAA"/>
<path d="M64.5941 57.8862L63.4175 57.2054C63.2623 57.1158 63.1309 56.8709 63.1309 56.6619V55.4076C63.1309 55.1986 63.2563 55.103 63.4175 55.1926L64.5941 55.8735C64.7494 55.9631 64.8808 56.2079 64.8808 56.417V57.6712C64.8749 57.8803 64.7494 57.9758 64.5941 57.8862Z" fill="white"/>
<path d="M83.4611 100.892L113.007 83.8348C113.67 83.4526 114.202 82.4312 114.202 81.5473V75.9152C114.202 75.0312 113.664 74.6311 113.007 75.0073L83.4611 92.065C82.7982 92.4473 82.2666 93.4686 82.2666 94.3525V99.9847C82.2666 100.869 82.7982 101.275 83.4611 100.892Z" fill="#5793CE"/>
<path opacity="0.4" d="M84.3094 98.9216L112.16 82.8434C112.494 82.6523 112.769 82.1326 112.769 81.6847V77.4501C112.769 77.0022 112.494 76.7991 112.16 76.9902L84.3094 93.0684C83.9749 93.2596 83.7002 93.7792 83.7002 94.2271V98.4617C83.7002 98.9096 83.9749 99.1127 84.3094 98.9216Z" fill="#D4ECFF"/>
<path d="M106.354 84.0498L110.511 81.6488C110.839 81.4637 111.102 80.956 111.102 80.52C111.102 80.084 110.839 79.8869 110.511 80.0721L106.354 82.4731C106.025 82.6582 105.763 83.1659 105.763 83.6019C105.763 84.0379 106.025 84.2409 106.354 84.0498Z" fill="#D4ECFF"/>
<path d="M102.812 85.31C102.812 85.746 103.117 85.9192 103.493 85.7042C103.87 85.4892 104.174 84.9576 104.174 84.5216C104.174 84.0856 103.87 83.9124 103.493 84.1275C103.117 84.3484 102.812 84.874 102.812 85.31Z" fill="#173D7A"/>
<path d="M100.411 86.6956C100.411 87.1316 100.716 87.3048 101.092 87.0898C101.468 86.8748 101.773 86.3433 101.773 85.9073C101.773 85.4713 101.468 85.2981 101.092 85.5131C100.716 85.7341 100.411 86.2596 100.411 86.6956Z" fill="#173D7A"/>
<path d="M98.0049 88.0813C98.0049 88.5173 98.3095 88.6905 98.6858 88.4755C99.062 88.2605 99.3666 87.7289 99.3666 87.2929C99.3666 86.8569 99.062 86.6837 98.6858 86.8988C98.3095 87.1197 98.0049 87.6513 98.0049 88.0813Z" fill="#D4ECFF"/>
<path d="M95.6035 89.4729C95.6035 89.9089 95.9081 90.0821 96.2844 89.8671C96.6607 89.6521 96.9653 89.1205 96.9653 88.6845C96.9653 88.2485 96.6607 88.0753 96.2844 88.2904C95.9081 88.5113 95.6035 89.0369 95.6035 89.4729Z" fill="#173D7A"/>
<path d="M85.4798 96.5624L86.8774 95.7561C87.0864 95.6366 87.2536 95.3141 87.2536 95.0334V93.5522C87.2536 93.2715 87.0864 93.146 86.8774 93.2655L85.4798 94.0718C85.2707 94.1912 85.1035 94.5138 85.1035 94.7945V96.2757C85.1035 96.5504 85.2707 96.6818 85.4798 96.5624Z" fill="#173D7A"/>
<path d="M83.4611 47.8309L113.007 30.7732C113.67 30.391 114.202 29.3697 114.202 28.4857V22.8476C114.202 21.9637 113.664 21.5635 113.007 21.9398L83.4611 38.9975C82.7982 39.3797 82.2666 40.401 82.2666 41.285V46.9171C82.2666 47.807 82.7982 48.2131 83.4611 47.8309Z" fill="#5793CE"/>
<path opacity="0.4" d="M84.3094 45.854L112.16 29.7758C112.494 29.5847 112.769 29.0651 112.769 28.6171V24.3826C112.769 23.9346 112.494 23.7316 112.16 23.9227L84.3094 40.0009C83.9749 40.192 83.7002 40.7116 83.7002 41.1595V45.3941C83.7002 45.8421 83.9749 46.0451 84.3094 45.854Z" fill="#D4ECFF"/>
<path d="M106.354 30.9822L110.511 28.5813C110.839 28.3961 111.102 27.8884 111.102 27.4525C111.102 27.0165 110.839 26.8194 110.511 27.0045L106.354 29.4055C106.025 29.5906 105.763 30.0983 105.763 30.5343C105.763 30.9763 106.025 31.1734 106.354 30.9822Z" fill="#D4ECFF"/>
<path d="M102.812 32.2425C102.812 32.6785 103.117 32.8517 103.493 32.6367C103.87 32.4216 104.174 31.8901 104.174 31.4541C104.174 31.0181 103.87 30.8449 103.493 31.0599C103.117 31.2809 102.812 31.8065 102.812 32.2425Z" fill="white"/>
<path d="M100.411 33.6281C100.411 34.0641 100.716 34.2373 101.092 34.0223C101.468 33.8072 101.773 33.2757 101.773 32.8397C101.773 32.4037 101.468 32.2305 101.092 32.4455C100.716 32.6665 100.411 33.198 100.411 33.6281Z" fill="#173D7A"/>
<path d="M98.0049 35.0197C98.0049 35.4557 98.3095 35.6289 98.6858 35.4139C99.062 35.1989 99.3666 34.6674 99.3666 34.2314C99.3666 33.7954 99.062 33.6222 98.6858 33.8372C98.3095 34.0582 98.0049 34.5837 98.0049 35.0197Z" fill="#D4ECFF"/>
<path d="M95.6035 36.4054C95.6035 36.8414 95.9081 37.0146 96.2844 36.7996C96.6607 36.5845 96.9653 36.053 96.9653 35.617C96.9653 35.181 96.6607 35.0078 96.2844 35.2228C95.9081 35.4438 95.6035 35.9694 95.6035 36.4054Z" fill="#173D7A"/>
<path d="M85.4798 43.4948L86.8774 42.6885C87.0864 42.569 87.2536 42.2465 87.2536 41.9658V40.4846C87.2536 40.2039 87.0864 40.0785 86.8774 40.1979L85.4798 41.0042C85.2707 41.1237 85.1035 41.4462 85.1035 41.7269V43.2081C85.1035 43.4888 85.2707 43.6142 85.4798 43.4948Z" fill="#173D7A"/>
<path d="M83.4611 120.763L113.007 103.706C113.67 103.323 114.202 102.302 114.202 101.418V95.786C114.202 94.902 113.664 94.5018 113.007 94.8781L83.4611 111.936C82.7982 112.318 82.2666 113.339 82.2666 114.223V119.855C82.2666 120.739 82.7982 121.146 83.4611 120.763Z" fill="#5793CE"/>
<path opacity="0.4" d="M84.3094 118.786L112.16 102.708C112.494 102.517 112.769 101.997 112.769 101.549V97.3149C112.769 96.867 112.494 96.6639 112.16 96.8551L84.3094 112.933C83.9749 113.124 83.7002 113.644 83.7002 114.092V118.326C83.7002 118.774 83.9749 118.983 84.3094 118.786Z" fill="#D4ECFF"/>
<path d="M106.354 103.921L110.511 101.52C110.839 101.334 111.102 100.827 111.102 100.391C111.102 99.9548 110.839 99.7577 110.511 99.9429L106.354 102.344C106.025 102.535 105.763 103.037 105.763 103.473C105.763 103.909 106.025 104.106 106.354 103.921Z" fill="#D4ECFF"/>
<path d="M102.812 105.175C102.812 105.611 103.117 105.784 103.493 105.569C103.87 105.354 104.174 104.822 104.174 104.386C104.174 103.95 103.87 103.777 103.493 103.992C103.117 104.213 102.812 104.745 102.812 105.175Z" fill="white"/>
<path d="M100.411 106.566C100.411 107.002 100.716 107.176 101.092 106.961C101.468 106.746 101.773 106.214 101.773 105.778C101.773 105.342 101.468 105.169 101.092 105.384C100.716 105.605 100.411 106.13 100.411 106.566Z" fill="#173D7A"/>
<path d="M98.0049 107.952C98.0049 108.388 98.3095 108.561 98.6858 108.346C99.062 108.131 99.3666 107.6 99.3666 107.164C99.3666 106.728 99.062 106.555 98.6858 106.77C98.3095 106.991 98.0049 107.516 98.0049 107.952Z" fill="#D4ECFF"/>
<path d="M95.6035 109.338C95.6035 109.774 95.9081 109.947 96.2844 109.732C96.6607 109.517 96.9653 108.985 96.9653 108.549C96.9653 108.113 96.6607 107.94 96.2844 108.155C95.9081 108.376 95.6035 108.908 95.6035 109.338Z" fill="#173D7A"/>
<path d="M85.4798 116.427L86.8774 115.621C87.0864 115.501 87.2536 115.179 87.2536 114.898V113.417C87.2536 113.136 87.0864 113.011 86.8774 113.13L85.4798 113.937C85.2707 114.056 85.1035 114.379 85.1035 114.659V116.141C85.1035 116.421 85.2707 116.553 85.4798 116.427Z" fill="#173D7A"/>
<path d="M83.4611 64.6956L113.007 47.638C113.67 47.2557 114.202 46.2344 114.202 45.3505V39.7183C114.202 38.8344 113.664 38.4342 113.007 38.8105L83.4611 55.8682C82.7982 56.2504 82.2666 57.2717 82.2666 58.1557V63.7878C82.2666 64.6718 82.7982 65.0779 83.4611 64.6956Z" fill="#5793CE"/>
<path opacity="0.4" d="M84.3094 62.7187L112.16 46.6406C112.494 46.4494 112.769 45.9298 112.769 45.4819V41.2473C112.769 40.7994 112.494 40.5963 112.16 40.7874L84.3094 56.8656C83.9749 57.0567 83.7002 57.5764 83.7002 58.0243V62.2589C83.7002 62.7068 83.9749 62.9158 84.3094 62.7187Z" fill="#D4ECFF"/>
<path d="M106.354 47.853L110.511 45.452C110.839 45.2668 111.102 44.7592 111.102 44.3232C111.102 43.8872 110.839 43.6901 110.511 43.8752L106.354 46.2762C106.025 46.4614 105.763 46.969 105.763 47.405C105.763 47.841 106.025 48.0441 106.354 47.853Z" fill="#D4ECFF"/>
<path d="M102.812 49.1132C102.812 49.5492 103.117 49.7224 103.493 49.5074C103.87 49.2924 104.174 48.7608 104.174 48.3248C104.174 47.8888 103.87 47.7156 103.493 47.9306C103.117 48.1516 102.812 48.6772 102.812 49.1132Z" fill="#173D7A"/>
<path d="M100.411 50.4988C100.411 50.9348 100.716 51.108 101.092 50.893C101.468 50.678 101.773 50.1464 101.773 49.7104C101.773 49.2744 101.468 49.1012 101.092 49.3162C100.716 49.5372 100.411 50.0628 100.411 50.4988Z" fill="#173D7A"/>
<path d="M98.0049 51.8845C98.0049 52.3205 98.3095 52.4937 98.6858 52.2787C99.062 52.0637 99.3666 51.5321 99.3666 51.0961C99.3666 50.6601 99.062 50.4869 98.6858 50.7019C98.3095 50.9229 98.0049 51.4545 98.0049 51.8845Z" fill="#D4ECFF"/>
<path d="M95.6035 53.2761C95.6035 53.7121 95.9081 53.8853 96.2844 53.6703C96.6607 53.4553 96.9653 52.9237 96.9653 52.4877C96.9653 52.0517 96.6607 51.8785 96.2844 52.0935C95.9081 52.3085 95.6035 52.8401 95.6035 53.2761Z" fill="#173D7A"/>
<path d="M85.4798 60.3655L86.8774 59.5592C87.0864 59.4398 87.2536 59.1172 87.2536 58.8365V57.3553C87.2536 57.0746 87.0864 56.9492 86.8774 57.0687L85.4798 57.875C85.2707 57.9944 85.1035 58.3169 85.1035 58.5976V60.0788C85.1035 60.3536 85.2707 60.485 85.4798 60.3655Z" fill="#D4ECFF"/>
<path d="M83.1945 82.0264L112.741 64.9687C113.404 64.5865 113.935 63.5652 113.935 62.6812V57.0491C113.935 56.1651 113.398 55.765 112.741 56.1412L83.1945 73.1989C82.5316 73.5812 82 74.6025 82 75.4864V81.1186C82 82.0025 82.5316 82.4086 83.1945 82.0264Z" fill="#5793CE"/>
<path opacity="0.4" d="M84.0428 80.0495L111.893 63.9713C112.227 63.7802 112.502 63.2606 112.502 62.8126V58.5781C112.502 58.1301 112.227 57.9271 111.893 58.1182L84.0428 74.1964C83.7083 74.3875 83.4336 74.9071 83.4336 75.355V79.5896C83.4336 80.0375 83.7083 80.2466 84.0428 80.0495Z" fill="#D4ECFF"/>
<path d="M106.087 65.1837L110.244 62.7827C110.573 62.5976 110.836 62.0899 110.836 61.6539C110.836 61.2179 110.573 61.0208 110.244 61.206L106.087 63.607C105.759 63.7921 105.496 64.2998 105.496 64.7358C105.496 65.1718 105.759 65.3748 106.087 65.1837Z" fill="#D4ECFF"/>
<path d="M102.546 66.4439C102.546 66.8799 102.85 67.0531 103.227 66.8381C103.603 66.6231 103.908 66.0916 103.908 65.6556C103.908 65.2196 103.603 65.0463 103.227 65.2614C102.85 65.4823 102.546 66.0079 102.546 66.4439Z" fill="#173D7A"/>
<path d="M100.145 67.8296C100.145 68.2655 100.449 68.4387 100.825 68.2237C101.202 68.0087 101.506 67.4772 101.506 67.0412C101.506 66.6052 101.202 66.432 100.825 66.647C100.449 66.868 100.145 67.3936 100.145 67.8296Z" fill="#173D7A"/>
<path d="M97.7383 69.2152C97.7383 69.6512 98.0429 69.8244 98.4192 69.6094C98.7954 69.3944 99.1 68.8629 99.1 68.4269C99.1 67.9909 98.7954 67.8177 98.4192 68.0327C98.0429 68.2536 97.7383 68.7852 97.7383 69.2152Z" fill="#D4ECFF"/>
<path d="M95.3369 70.6068C95.3369 71.0428 95.6415 71.216 96.0178 71.001C96.3941 70.786 96.6987 70.2545 96.6987 69.8185C96.6987 69.3825 96.3941 69.2093 96.0178 69.4243C95.6415 69.6393 95.3369 70.1708 95.3369 70.6068Z" fill="#173D7A"/>
<path d="M85.2132 77.6963L86.6108 76.89C86.8198 76.7705 86.987 76.448 86.987 76.1673V74.6861C86.987 74.4054 86.8198 74.28 86.6108 74.3994L85.2132 75.2057C85.0041 75.3252 84.8369 75.6477 84.8369 75.9284V77.4096C84.8369 77.6843 85.0041 77.8157 85.2132 77.6963Z" fill="#D4ECFF"/>
<path d="M83.4611 90.4988L113.007 73.4411C113.67 73.0589 114.202 72.0376 114.202 71.1536V65.5215C114.202 64.6375 113.664 64.2374 113.007 64.6137L83.4611 81.6713C82.7982 82.0536 82.2666 83.0749 82.2666 83.9588V89.591C82.2666 90.4749 82.7982 90.8811 83.4611 90.4988Z" fill="#5793CE"/>
<path opacity="0.4" d="M84.3094 88.5219L112.16 72.4437C112.494 72.2526 112.769 71.733 112.769 71.285V67.0505C112.769 66.6025 112.494 66.3995 112.16 66.5906L84.3094 82.6688C83.9749 82.8599 83.7002 83.3795 83.7002 83.8274V88.062C83.7002 88.51 83.9749 88.719 84.3094 88.5219Z" fill="#D4ECFF"/>
<path d="M106.354 73.6561L110.511 71.2552C110.839 71.07 111.102 70.5623 111.102 70.1263C111.102 69.6903 110.839 69.4932 110.511 69.6784L106.354 72.0794C106.025 72.2645 105.763 72.7722 105.763 73.2082C105.763 73.6442 106.025 73.8413 106.354 73.6561Z" fill="#D4ECFF"/>
<path d="M102.054 75.4539C102.054 76.2721 102.627 76.6066 103.338 76.1945C104.049 75.7824 104.622 74.7849 104.622 73.9667C104.622 73.1484 104.049 72.814 103.338 73.2261C102.627 73.6322 102.054 74.6297 102.054 75.4539Z" fill="white"/>
<path d="M97.0791 78.3625C97.0791 78.7985 97.3837 78.9717 97.76 78.7567C98.1362 78.5417 98.4408 78.0101 98.4408 77.5741C98.4408 77.1381 98.1362 76.9649 97.76 77.1799C97.3837 77.4009 97.0791 77.9325 97.0791 78.3625Z" fill="#173D7A"/>
<path d="M94.6719 79.7542C94.6719 80.1902 94.9765 80.3634 95.3527 80.1484C95.729 79.9334 96.0336 79.4018 96.0336 78.9658C96.0336 78.5298 95.729 78.3566 95.3527 78.5716C94.9765 78.7866 94.6719 79.3182 94.6719 79.7542Z" fill="#D4ECFF"/>
<path d="M92.2705 81.1398C92.2705 81.5758 92.5751 81.749 92.9514 81.534C93.3277 81.319 93.6323 80.7874 93.6323 80.3514C93.6323 79.9154 93.3277 79.7422 92.9514 79.9572C92.5751 80.1782 92.2705 80.7038 92.2705 81.1398Z" fill="#173D7A"/>
<path d="M85.4798 86.1628L86.8774 85.3565C87.0864 85.237 87.2536 84.9145 87.2536 84.6338V83.1526C87.2536 82.8719 87.0864 82.7464 86.8774 82.8659L85.4798 83.6722C85.2707 83.7916 85.1035 84.1142 85.1035 84.3949V85.8761C85.1035 86.1568 85.2707 86.2882 85.4798 86.1628Z" fill="#D4ECFF"/>
<g filter="url(#filter0_d)">
<path d="M203.523 105.944L145.487 72.4258L210.911 75.5077L214.972 79.3899L215.856 85.2251L215.205 89.1849L213.264 93.9988L211.323 97.7675L209.143 100.593L203.523 105.944Z" fill="#173D7A"/>
<path d="M154.744 41.8642C154.643 41.8044 154.547 41.7447 154.44 41.691L154.422 41.679C152.104 40.4367 148.957 40.6637 145.487 42.6645L66.2188 88.4324C66.5532 88.6832 66.8518 88.9878 67.1326 89.3163L70.1368 87.5843L86.1791 122.446L94.481 133.782L99.8981 135.67L105.333 133.549L131.702 118.564L183.968 88.6773L203.14 77.1621L208.145 75.5734L212.648 75.3047L154.744 41.8642Z" fill="#D4ECFF"/>
<path d="M92.0979 127.045C92.0979 118.839 97.8794 108.829 104.987 104.726V106.141C98.5543 109.856 93.3223 118.916 93.3223 126.34C93.3223 133.764 98.5543 136.786 104.987 133.071L203.522 76.1826C207.076 74.134 210.295 73.9429 212.631 75.2867L154.744 41.8582C154.643 41.7985 154.547 41.7387 154.44 41.685L154.422 41.673C152.104 40.4307 148.957 40.6577 145.487 42.6585L66.2188 88.4324C66.5532 88.6832 66.8518 88.9878 67.1326 89.3223L70.1368 87.5902L86.1791 122.452L92.8147 131.513C92.3548 130.24 92.0979 128.747 92.0979 127.045Z" fill="#D4ECFF"/>
<path d="M212.643 75.2986L212.631 75.2927C212.637 75.2927 212.637 75.2927 212.643 75.2986Z" fill="#D4ECFF"/>
<path d="M92.0977 126.263C92.0977 126.406 92.1096 126.537 92.1156 126.681C92.1992 122.584 93.6864 118.074 96.0396 114.091C95.9321 114.019 95.8186 113.953 95.7111 113.881C93.4773 117.841 92.0977 122.267 92.0977 126.263Z" fill="white"/>
<path d="M203.522 75.4002L104.987 132.289C98.7095 135.914 93.5731 133.119 93.3342 126.072C93.3342 126.161 93.3223 126.251 93.3223 126.34C93.3223 133.764 98.5542 136.786 104.987 133.071L203.522 76.1826C207.076 74.134 210.295 73.9429 212.631 75.2867L209.829 73.6681C207.96 73.5367 205.81 74.0802 203.522 75.4002Z" fill="white"/>
<path d="M86.1731 121.658L70.1308 86.7958L67.1266 88.5279C67.0071 88.3845 66.8817 88.2472 66.7503 88.1158L66.2188 88.4264C66.5532 88.6772 66.8518 88.9818 67.1326 89.3163L70.1368 87.5842L86.1791 122.446L92.8147 131.507C92.6713 131.106 92.5519 130.67 92.4503 130.222L86.1731 121.658Z" fill="white"/>
<path d="M212.643 74.5162L212.631 74.5103C212.637 74.5103 212.637 74.5103 212.643 74.5162Z" fill="#D4ECFF"/>
<path d="M46.9572 71.2074C39.8498 75.3106 34.0684 85.3206 34.0684 93.5269C34.0684 97.4868 35.4182 100.312 37.6101 101.715V101.721L37.6459 101.739C37.7773 101.823 37.9087 101.9 38.0461 101.972L95.8667 135.383L92.3249 128.986L92.737 122.595L93.8539 119.006L95.5621 115.178C95.5621 115.178 96.9776 112.556 97.0612 112.496C97.1508 112.436 99.1516 109.844 99.1516 109.844L101.099 107.813L103.213 106.458L104.975 104.731L46.9572 71.2074Z" fill="#5793CE"/>
<path d="M203.522 105.944V104.528C209.955 100.814 215.187 91.7531 215.187 84.3292C215.187 76.9053 209.955 73.8832 203.522 77.5981L104.986 134.487C97.8791 138.59 92.0977 135.251 92.0977 127.045C92.0977 118.839 97.8791 108.829 104.986 104.726V106.141C98.554 109.856 93.322 118.916 93.322 126.34C93.322 133.764 98.554 136.786 104.986 133.071L203.522 76.1826C210.629 72.0795 216.411 75.4181 216.411 83.6245C216.411 91.8308 210.629 101.841 203.522 105.944Z" fill="#173D7A"/>
</g>
<path d="M157.373 85.9298L129.779 70.3534C128.68 69.7322 126.769 69.8337 125.509 70.5743L109.741 79.8975C108.487 80.6381 108.362 81.7431 109.461 82.3642L137.054 97.9407C138.153 98.5618 140.064 98.4603 141.324 97.7197L157.092 88.3965C158.352 87.6559 158.478 86.551 157.373 85.9298Z" fill="#5793CE"/>
<path d="M136.374 94.5662L108.004 78.5835C107.443 78.267 107.174 77.837 107.162 77.389L107.15 77.401L107.12 74.2415C107.12 74.2415 108.118 75.0597 108.703 75.5375L126.382 65.0855C127.821 64.2374 130.007 64.1239 131.267 64.8347L158.383 80.1125L160.455 78.8881L160.491 82.0775L160.479 82.0656C160.473 82.615 160.085 83.1884 159.314 83.6483L141.265 94.3213C139.82 95.1634 137.634 95.2769 136.374 94.5662Z" fill="#FFEBB3"/>
<path d="M159.595 77.5981L131.225 61.6154C129.965 60.9047 127.779 61.0182 126.34 61.8663L108.291 72.5393C106.851 73.3874 106.708 74.6536 107.968 75.3643L136.338 91.3469C137.598 92.0577 139.784 91.9442 141.223 91.0961L159.272 80.4231C160.712 79.575 160.855 78.3088 159.595 77.5981Z" fill="#FFBC00"/>
<path d="M136.338 91.3529L107.968 75.3703C107.251 74.9642 107.006 74.3848 107.173 73.7995C107.305 74.0742 107.538 74.3251 107.902 74.5341L136.272 90.5168C137.532 91.2275 139.718 91.114 141.157 90.2659L159.207 79.5929C159.828 79.2286 160.192 78.7806 160.323 78.3387C160.652 79.0136 160.294 79.8258 159.272 80.435L141.223 91.1081C139.784 91.9502 137.598 92.0637 136.338 91.3529Z" fill="white"/>
<path d="M129.833 73.453C130.879 72.8379 130.867 71.8524 129.81 71.2551C128.752 70.6579 127.05 70.6758 126.005 71.2969C124.96 71.9121 124.972 72.8976 126.029 73.4949C127.086 74.0921 128.788 74.0742 129.833 73.453Z" fill="white"/>
<path d="M133.723 77.1994C135.21 77.1839 136.409 76.4762 136.4 75.6186C136.391 74.7611 135.178 74.0785 133.69 74.0939C132.203 74.1094 131.004 74.8171 131.013 75.6747C131.022 76.5322 132.235 77.2148 133.723 77.1994Z" fill="white"/>
<path d="M139.522 80.4665C141.009 80.4511 142.208 79.7433 142.199 78.8858C142.19 78.0283 140.977 77.3456 139.489 77.3611C138.002 77.3766 136.803 78.0843 136.812 78.9418C136.821 79.7994 138.034 80.482 139.522 80.4665Z" fill="white"/>
<path d="M120.086 105.759L96.9601 92.2727L95.5088 93.1029L118.635 106.589L120.086 105.759Z" fill="#5793CE"/>
<path d="M119.441 98.0661L103.303 88.6533L101.852 89.4835L117.989 98.8963L119.441 98.0661Z" fill="#5793CE"/>
<path d="M114.096 98.6096L100.132 90.463L98.6807 91.2932L112.645 99.4338L114.096 98.6096Z" fill="#5793CE"/>
<path d="M123.257 103.949L116.276 99.8759L114.824 100.706L121.806 104.779L123.257 103.949Z" fill="#5793CE"/>
<path d="M174.065 73.9966L150.94 60.5165L149.488 61.3407L172.614 74.8268L174.065 73.9966Z" fill="#5793CE"/>
<path d="M173.42 66.3039L157.277 56.8911L155.825 57.7213L171.969 67.1341L173.42 66.3039Z" fill="#5793CE"/>
<path d="M168.075 66.8474L154.106 58.7008L152.66 59.531L166.624 67.6776L168.075 66.8474Z" fill="#5793CE"/>
<path d="M177.231 72.1869L170.249 68.1136L168.798 68.9438L175.786 73.0171L177.231 72.1869Z" fill="#5793CE"/>
<path d="M154.745 41.8582C154.643 41.7985 154.548 41.7387 154.44 41.685L154.422 41.673C152.105 40.4307 148.958 40.6577 145.487 42.6585L138.834 46.4989L148.187 51.8981C148.641 52.1609 149.047 52.1549 149.352 51.9459L160.753 45.3283L154.745 41.8582Z" fill="#ABD6F4"/>
<path d="M169.234 31.8421L166.23 30.1101L177.297 23.7194C177.823 23.4148 177.823 22.9251 177.297 22.6264L165.991 16.0984C165.465 15.7938 164.617 15.7938 164.098 16.0984L153.031 22.4891L150.026 20.757L161.094 14.3664C163.274 13.1062 166.815 13.1062 168.995 14.3664L180.301 20.8944C182.481 22.1546 182.481 24.1972 180.301 25.4574L169.234 31.8421Z" fill="#FFBC00"/>
<path d="M174.078 32.6066C174.078 31 173.104 29.1365 171.898 28.4437L151.848 16.8688C151.31 16.5583 150.815 16.5344 150.438 16.7494L126.488 30.6595L149.638 48.1054L173.224 34.4163C173.295 34.3804 173.367 34.3446 173.433 34.2968C173.833 33.9922 174.078 33.4069 174.078 32.6066Z" fill="#D4ECFF"/>
<path d="M149.645 48.1055L173.23 34.4163C173.302 34.3805 173.374 34.3446 173.439 34.2969C173.833 33.9982 174.078 33.4129 174.078 32.6126C174.078 31.8481 173.851 31.0239 173.493 30.2952L146.604 45.818L149.645 48.1055Z" fill="#173D7A"/>
<path d="M148.133 48.0397L128.083 36.4648C126.877 35.772 125.903 33.9086 125.903 32.302C125.903 30.6953 126.877 29.9607 128.083 30.6535L148.133 42.2284C149.34 42.9212 150.313 44.7847 150.313 46.3913C150.313 47.9979 149.34 48.7385 148.133 48.0397Z" fill="#5793CE"/>
<path d="M148.378 42.1209L128.328 30.546C127.773 30.2295 127.271 30.2115 126.889 30.4445C127.235 30.337 127.647 30.4027 128.089 30.6535L148.139 42.2284C149.34 42.9212 150.319 44.7846 150.319 46.3913C150.319 47.2573 150.032 47.8665 149.579 48.1412C150.17 47.9621 150.558 47.2931 150.558 46.2838C150.558 44.6831 149.579 42.8197 148.378 42.1209Z" fill="white"/>
<path d="M145.129 44.1397L142.716 42.748C142.477 42.6107 142.28 42.2404 142.28 41.9179C142.28 41.5953 142.477 41.452 142.716 41.5894L145.129 42.981C145.368 43.1184 145.565 43.4887 145.565 43.8112C145.565 44.1277 145.374 44.277 145.129 44.1397Z" fill="white"/>
<path d="M147.852 27.6793C148.581 27.2493 148.575 26.5624 147.835 26.1503C147.1 25.7382 145.911 25.7501 145.183 26.1802C144.454 26.6102 144.46 27.297 145.201 27.7092C145.935 28.1213 147.124 28.1093 147.852 27.6793Z" fill="#5793CE"/>
<path d="M151.891 29.9549C152.619 29.5248 152.613 28.838 151.873 28.4259C151.138 28.0138 149.949 28.0257 149.221 28.4557C148.492 28.8858 148.498 29.5726 149.239 29.9847C149.973 30.3968 151.162 30.3849 151.891 29.9549Z" fill="white"/>
<path d="M155.928 32.2304C156.656 31.8004 156.65 31.1136 155.91 30.7015C155.175 30.2893 153.987 30.3013 153.258 30.7313C152.529 31.1613 152.535 31.8482 153.276 32.2603C154.01 32.6724 155.199 32.6605 155.928 32.2304Z" fill="white"/>
<path d="M122.039 152.118L184.924 115.787C186.447 114.909 186.256 113.368 184.5 112.353C182.738 111.337 180.074 111.224 178.551 112.108L115.66 148.439C114.137 149.317 114.328 150.858 116.084 151.873C117.852 152.888 120.516 152.996 122.039 152.118Z" fill="#EFEFEF"/>
<path d="M190.061 103.364C190.007 103.274 189.905 103.226 189.804 103.25L186.453 103.943L187.749 106.195L190.031 103.65C190.102 103.567 190.114 103.453 190.061 103.364Z" fill="#D4ECFF"/>
<path d="M188.728 105C188.728 104.517 188.394 103.931 187.976 103.692C187.785 103.579 187.611 103.567 187.474 103.627C183.616 103.555 179.805 104.534 176.461 106.458L176.216 106.595L180.295 113.696L181.531 112.896C184.141 111.2 186.351 108.96 188 106.32L188.531 105.466C188.651 105.383 188.728 105.227 188.728 105Z" fill="#5793CE"/>
<path d="M181.149 111.827C181.155 109.981 179.859 107.73 178.264 106.804C176.669 105.878 175.367 106.625 175.367 108.47C175.361 110.316 176.657 112.568 178.252 113.493C179.847 114.419 181.143 113.672 181.149 111.827Z" fill="#D4ECFF"/>
<path d="M155.514 128.795L180.294 113.696L176.215 106.595L150.694 120.41L155.514 128.795Z" fill="#D4ECFF"/>
<path d="M156.524 126.585C156.53 124.405 155.001 121.747 153.114 120.654C151.227 119.561 149.692 120.439 149.686 122.625C149.68 124.805 151.209 127.463 153.096 128.556C154.983 129.649 156.518 128.765 156.524 126.585Z" fill="#D4ECFF"/>
<path d="M155.109 127.397C155.115 125.217 153.586 122.56 151.699 121.467C149.811 120.374 148.276 121.252 148.271 123.432C148.265 125.612 149.794 128.269 151.681 129.362C153.574 130.461 155.109 129.577 155.109 127.397Z" fill="#D4ECFF"/>
<path d="M149.285 121.223L116.514 140.053L121.334 148.442L154.106 129.613L149.285 121.223Z" fill="#D4ECFF"/>
<path d="M122.338 146.229C122.344 144.049 120.815 141.391 118.927 140.298C117.04 139.205 115.505 140.083 115.499 142.269C115.493 144.449 117.022 147.107 118.909 148.2C120.803 149.287 122.332 148.409 122.338 146.229Z" fill="#D4ECFF"/>
<path d="M121.113 145.518C121.053 144.228 120.02 142.616 118.807 141.911C117.595 141.206 116.663 141.684 116.729 142.968C116.795 144.252 117.822 145.871 119.034 146.575C120.247 147.28 121.178 146.808 121.113 145.518Z" fill="#396CAA"/>
<path d="M156.775 126.442C156.781 124.262 155.252 121.604 153.365 120.511C152.606 120.069 151.901 119.956 151.334 120.111C151.955 119.472 152.97 119.406 154.111 120.069C155.999 121.162 157.528 123.82 157.522 126C157.522 127.302 156.966 128.138 156.124 128.371C156.53 127.953 156.769 127.302 156.775 126.442Z" fill="white"/>
<path d="M156.775 126.442C156.781 124.262 155.252 121.604 153.364 120.511C152.421 119.962 151.567 119.908 150.945 120.266L149.088 121.335L149.954 122.84C150.097 124.823 151.399 127.099 153.048 128.222L153.914 129.727L155.771 128.658C156.386 128.299 156.769 127.535 156.775 126.442Z" fill="#5793CE"/>
<path d="M154.918 127.511C154.924 125.331 153.395 122.673 151.507 121.58C149.62 120.487 148.085 121.365 148.079 123.551C148.073 125.731 149.602 128.389 151.489 129.482C153.377 130.569 154.912 129.691 154.918 127.511Z" fill="#D4ECFF"/>
<path d="M119.572 146.468L117.493 142.849L110.547 146.844C109.55 147.418 109.203 148.696 109.777 149.693C110.35 150.691 111.628 151.037 112.626 150.464L119.572 146.468Z" fill="#FFBC00"/>
<path d="M120.008 145.518C120.008 144.575 119.351 143.434 118.539 142.956C117.726 142.484 117.063 142.866 117.063 143.804C117.063 144.748 117.72 145.889 118.533 146.366C119.345 146.838 120.002 146.456 120.008 145.518Z" fill="#FFBC00"/>
<path d="M127.808 132.886L126.78 132.289C126.189 131.949 125.401 132.02 124.564 132.504L120.993 134.553C120.318 134.941 119.768 135.885 119.768 136.667L119.762 138.441C119.762 138.739 119.613 139.08 119.398 139.331L119.524 140.155L118.646 139.641C118.52 139.576 118.437 139.426 118.437 139.205L118.442 137.431C118.448 135.813 119.589 133.836 120.999 133.03L124.57 130.981C125.765 130.294 126.882 130.187 127.724 130.676L128.751 131.274C129.342 131.614 130.131 131.542 130.967 131.059L145.355 122.793C145.54 122.685 145.707 122.679 145.827 122.751L146.705 123.264L145.946 123.545C145.839 123.862 145.612 124.166 145.349 124.322L130.961 132.588C129.767 133.269 128.65 133.376 127.808 132.886Z" fill="#5793CE"/>
<path d="M127.67 132.815C127.079 132.474 126.29 132.546 125.454 133.03L121.882 135.078C121.208 135.466 120.658 136.41 120.658 137.192L120.652 138.966C120.652 139.39 120.353 139.904 119.989 140.113C119.625 140.322 119.326 140.149 119.326 139.731L119.332 137.957C119.338 136.338 120.479 134.362 121.888 133.555L125.46 131.507C126.655 130.82 127.771 130.712 128.614 131.202L129.641 131.799C130.232 132.14 131.02 132.068 131.857 131.584L146.245 123.318C146.609 123.109 146.908 123.282 146.908 123.7C146.908 124.125 146.609 124.638 146.245 124.847L131.857 133.113C130.662 133.8 129.545 133.908 128.703 133.418L127.67 132.815Z" fill="#5793CE"/>
<path d="M120.611 137.479L120.605 139.253C120.605 139.265 120.599 139.277 120.599 139.289C120.634 139.175 120.652 139.068 120.652 138.96L120.658 137.187C120.658 137.139 120.664 137.085 120.67 137.031C120.634 137.187 120.611 137.336 120.611 137.479Z" fill="white"/>
<path d="M113.874 155.027L120.456 151.228C121.25 150.768 121.149 149.968 120.235 149.442C119.321 148.911 117.935 148.857 117.141 149.317L110.559 153.115C109.765 153.575 109.866 154.376 110.78 154.901C111.694 155.427 113.08 155.481 113.874 155.027Z" fill="#EFEFEF"/>
<g filter="url(#filter1_d)">
<path d="M52.4771 135.126L44.2588 139.874V130.384L52.4771 125.635V135.126Z" fill="#FFBC00"/>
<path d="M44.2583 130.384L36.04 125.636L44.2583 120.893L52.4766 125.636L44.2583 130.384Z" fill="#FFEBB3"/>
<path d="M44.2583 139.874L36.04 135.126V125.635L44.2583 130.384V139.874Z" fill="#FFEBB3"/>
</g>
<g filter="url(#filter2_d)">
<path d="M30.3122 76.4813L21.1562 81.767V71.1955L30.3122 65.9098V76.4813Z" fill="#173D7A"/>
<path d="M21.156 71.1955L12 65.9097L21.156 60.624L30.3119 65.9097L21.156 71.1955Z" fill="#D4ECFF"/>
<path d="M21.156 81.767L12 76.4813V65.9098L21.156 71.1955V81.767Z" fill="#5793CE"/>
</g>
<g filter="url(#filter3_d)">
<path d="M231.994 51.8145V45.4895L217.809 45.4835L212.905 42.6525C211.782 42.0015 209.812 42.0851 208.515 42.8317L203.94 45.4716L189.744 45.4656V51.9697C189.714 52.4117 189.959 52.8358 190.496 53.1463L208.832 63.7357C209.955 64.3867 211.926 64.3031 213.222 63.5565L230.925 53.3315C231.671 52.9015 232.035 52.34 231.994 51.8145Z" fill="#396CAA"/>
<path d="M210.869 42.2165C210.044 42.2344 209.19 42.4435 208.515 42.8317L203.94 45.4716L189.744 45.4656V51.9697C189.714 52.4117 189.959 52.8357 190.496 53.1463L208.832 63.7357C209.376 64.0463 210.11 64.1896 210.869 64.1717V42.2165Z" fill="#396CAA"/>
<path d="M191.344 45.4656H189.738V51.9697C189.708 52.4117 189.953 52.8357 190.49 53.1463L191.344 53.6361V45.4656Z" fill="#5793CE"/>
<path d="M209.112 63.8731C210.086 64.2912 211.489 64.2673 212.624 63.8313V56.4432H209.112V63.8731Z" fill="#5793CE"/>
<path d="M208.826 57.2555L190.49 46.6661C189.368 46.0151 189.505 44.8803 190.807 44.1337L208.51 33.9087C209.812 33.1561 211.777 33.0785 212.9 33.7295L231.235 44.3189C232.358 44.9699 232.221 46.1047 230.919 46.8512L213.216 57.0763C211.92 57.8229 209.955 57.9005 208.826 57.2555Z" fill="#D4ECFF"/>
<path d="M230.924 45.603L213.222 55.828C211.92 56.5806 209.955 56.6582 208.832 56.0072L190.496 45.4178C190.245 45.2745 190.06 45.1013 189.935 44.9221C189.546 45.5432 189.726 46.2181 190.496 46.6661L208.832 57.2555C209.955 57.9065 211.926 57.8229 213.222 57.0763L230.924 46.8512C231.934 46.2659 232.238 45.4536 231.802 44.8146C231.623 45.0953 231.331 45.37 230.924 45.603Z" fill="white"/>
<path d="M225.251 53.4868C225.251 53.9586 224.916 54.532 224.51 54.7709C224.104 55.0098 223.77 54.8127 223.77 54.3408C223.77 53.869 224.104 53.2956 224.51 53.0567C224.916 52.8238 225.251 53.0149 225.251 53.4868Z" fill="#D4ECFF"/>
<path d="M227.634 52.113C227.634 52.5849 227.299 53.1582 226.893 53.3971C226.487 53.636 226.152 53.4389 226.152 52.9671C226.152 52.4953 226.487 51.9219 226.893 51.683C227.299 51.4501 227.634 51.6412 227.634 52.113Z" fill="#D4ECFF"/>
<path d="M230.016 50.7334C230.016 51.2052 229.682 51.7786 229.276 52.0175C228.87 52.2564 228.535 52.0593 228.535 51.5875C228.535 51.1156 228.87 50.5423 229.276 50.3034C229.682 50.0645 230.016 50.2616 230.016 50.7334Z" fill="#D4ECFF"/>
<path d="M209.913 50.6916L201.33 45.7343C200.805 45.4297 200.87 44.8982 201.48 44.5458L209.764 39.7618C210.373 39.4094 211.293 39.3736 211.818 39.6782L220.401 44.6294C220.926 44.934 220.861 45.4656 220.251 45.818L211.967 50.602C211.358 50.9544 210.438 50.9962 209.913 50.6916Z" fill="#5793CE"/>
<path d="M210.731 46.5407L209.543 45.8538C209.471 45.812 209.477 45.7403 209.561 45.6925L210.707 45.0296C210.791 44.9818 210.916 44.9758 210.994 45.0176L212.183 45.7045C212.254 45.7463 212.248 45.818 212.165 45.8658L211.018 46.5287C210.934 46.5765 210.809 46.5825 210.731 46.5407Z" fill="#D4ECFF"/>
<path d="M201.33 45.7352L201.354 45.7471C201.396 45.7172 201.432 45.6874 201.48 45.6635L209.764 40.8794C210.373 40.5271 211.293 40.4912 211.818 40.7958L220.377 45.7352C220.861 45.3887 220.89 44.9169 220.401 44.6362L211.818 39.6849C211.293 39.3803 210.373 39.4162 209.764 39.7685L201.48 44.5526C200.87 44.899 200.805 45.4306 201.33 45.7352Z" fill="#396CAA"/>
</g>
<defs>
<filter id="filter0_d" x="22.0684" y="28.9069" width="214.343" height="127.335" filterUnits="userSpaceOnUse" color-interpolation-filters="sRGB">
<feFlood flood-opacity="0" result="BackgroundImageFix"/>
<feColorMatrix in="SourceAlpha" type="matrix" values="0 0 0 0 0 0 0 0 0 0 0 0 0 0 0 0 0 0 127 0"/>
<feOffset dx="4" dy="4"/>
<feGaussianBlur stdDeviation="8"/>
<feColorMatrix type="matrix" values="0 0 0 0 0 0 0 0 0 0 0 0 0 0 0 0 0 0 0.1 0"/>
<feBlend mode="normal" in2="BackgroundImageFix" result="effect1_dropShadow"/>
<feBlend mode="normal" in="SourceGraphic" in2="effect1_dropShadow" result="shape"/>
</filter>
<filter id="filter1_d" x="24.04" y="108.893" width="48.437" height="50.9808" filterUnits="userSpaceOnUse" color-interpolation-filters="sRGB">
<feFlood flood-opacity="0" result="BackgroundImageFix"/>
<feColorMatrix in="SourceAlpha" type="matrix" values="0 0 0 0 0 0 0 0 0 0 0 0 0 0 0 0 0 0 127 0"/>
<feOffset dx="4" dy="4"/>
<feGaussianBlur stdDeviation="8"/>
<feColorMatrix type="matrix" values="0 0 0 0 0 0 0 0 0 0 0 0 0 0 0 0 0 0 0.25 0"/>
<feBlend mode="normal" in2="BackgroundImageFix" result="effect1_dropShadow"/>
<feBlend mode="normal" in="SourceGraphic" in2="effect1_dropShadow" result="shape"/>
</filter>
<filter id="filter2_d" x="0" y="48.624" width="50.3122" height="53.143" filterUnits="userSpaceOnUse" color-interpolation-filters="sRGB">
<feFlood flood-opacity="0" result="BackgroundImageFix"/>
<feColorMatrix in="SourceAlpha" type="matrix" values="0 0 0 0 0 0 0 0 0 0 0 0 0 0 0 0 0 0 127 0"/>
<feOffset dx="4" dy="4"/>
<feGaussianBlur stdDeviation="8"/>
<feColorMatrix type="matrix" values="0 0 0 0 0 0 0 0 0 0 0 0 0 0 0 0 0 0 0.25 0"/>
<feBlend mode="normal" in2="BackgroundImageFix" result="effect1_dropShadow"/>
<feBlend mode="normal" in="SourceGraphic" in2="effect1_dropShadow" result="shape"/>
</filter>
<filter id="filter3_d" x="177.731" y="21.2883" width="74.2655" height="62.8865" filterUnits="userSpaceOnUse" color-interpolation-filters="sRGB">
<feFlood flood-opacity="0" result="BackgroundImageFix"/>
<feColorMatrix in="SourceAlpha" type="matrix" values="0 0 0 0 0 0 0 0 0 0 0 0 0 0 0 0 0 0 127 0"/>
<feOffset dx="4" dy="4"/>
<feGaussianBlur stdDeviation="8"/>
<feColorMatrix type="matrix" values="0 0 0 0 0 0 0 0 0 0 0 0 0 0 0 0 0 0 0.1 0"/>
<feBlend mode="normal" in2="BackgroundImageFix" result="effect1_dropShadow"/>
<feBlend mode="normal" in="SourceGraphic" in2="effect1_dropShadow" result="shape"/>
</filter>
</defs>
</svg>
