<svg width="10" height="10" viewBox="0 0 10 10" fill="none" xmlns="http://www.w3.org/2000/svg">
<path d="M9.97373 3.5895C9.90923 3.4005 9.73873 3.267 9.53973 3.2515L6.68923 3.025L5.45573 0.2945C5.37523 0.115 5.19673 0 5.00023 0C4.80373 0 4.62523 0.115 4.54473 0.294L3.31123 3.025L0.460734 3.2515C0.265234 3.267 0.0967336 3.3955 0.0302336 3.58C-0.0362664 3.7645 0.0107336 3.971 0.151234 4.108L2.25773 6.1615L1.51273 9.3875C1.46673 9.587 1.54723 9.7945 1.71573 9.911C1.80173 9.97 1.90073 10 2.00023 10C2.09673 10 2.19373 9.972 2.27773 9.916L5.00023 8.101L7.72273 9.916C7.89673 10.032 8.12523 10.0275 8.29523 9.904C8.46423 9.7805 8.53873 9.564 8.48123 9.363L7.56673 6.163L9.83473 4.122C9.98323 3.988 10.0377 3.779 9.97373 3.5895Z" fill="#F5A623"/>
</svg>
