<svg width="19" height="21" viewBox="0 0 19 21" fill="none" xmlns="http://www.w3.org/2000/svg">
<path d="M9.5 0.75C8.09375 0.75 6.74902 1.03125 5.46582 1.59375C4.25293 2.12109 3.18066 2.86816 2.24902 3.83496C1.31738 4.80176 0.605469 5.91797 0.113281 7.18359L1.66895 7.81641C2.07324 6.76172 2.66211 5.83008 3.43555 5.02148C4.20898 4.21289 5.10547 3.58008 6.125 3.12305C7.19727 2.66602 8.32227 2.4375 9.5 2.4375C10.8359 2.4375 12.1016 2.74512 13.2969 3.36035C14.457 3.95801 15.4238 4.77539 16.1973 5.8125H12.875V7.5H18.7812V1.59375H17.0938V4.2041C16.1445 3.13184 15.0283 2.28809 13.7451 1.67285C12.3916 1.05762 10.9766 0.75 9.5 0.75ZM17.3311 13.9336C16.9268 14.9883 16.3379 15.9199 15.5645 16.7285C14.791 17.5371 13.8945 18.1699 12.875 18.627C11.8027 19.084 10.6777 19.3125 9.5 19.3125C8.14648 19.3125 6.87207 19.0049 5.67676 18.3896C4.53418 17.792 3.56738 16.9746 2.77637 15.9375H6.125V14.25H0.21875V20.1562H1.90625V17.5459C2.85547 18.6182 3.97168 19.4531 5.25488 20.0508C6.59082 20.6836 8.00586 21 9.5 21C10.9062 21 12.251 20.7188 13.5342 20.1562C14.7471 19.6289 15.8193 18.8818 16.751 17.915C17.6826 16.9482 18.3945 15.832 18.8867 14.5664L17.3311 13.9336Z" fill="white"/>
</svg>
